# xmcd
#
# Track frame offsets:
#  150
#  13857
#  28345
#  44344
#  60915
#  80331
#  93315
#  114428
#  130782
#  149556
#  167225
#  183982
#
# Disc length: 2710 seconds
#
# Revision: 0
# Processed by: cddbd v1.5.1PL2 Copyright (c) Steve Scherf et al.
# Submitted via: Collectorz.com_Music_Collector 6.11
#
DISCID=9e0a940c
DTITLE=Anti-Nowhere League - Kings And Queens
DYEAR=2005
DGENRE=Punk
TTITLE0=Degeneration
TTITLE1=Mother's C!!!
TTITLE2=Kings and Queens
TTITLE3=Just Another Day
TTITLE4=Piggy (The Lesson of Life)
TTITLE5=Wet Dream
TTITLE6=Pump Action
TTITLE7=There Is No God
TTITLE8=Mission To Mars
TTITLE9=Am I Dead
TTITLE10=Dead Heroes
TTITLE11=The Punk Prayer
EXTD=
EXTT0=
EXTT1=
EXTT2=
EXTT3=
EXTT4=
EXTT5=
EXTT6=
EXTT7=
EXTT8=
EXTT9=
EXTT10=
EXTT11=
PLAYORDER=
